<svg xmlns="http://www.w3.org/2000/svg">
	<symbol id="search-symbol" viewBox="0 0 50 50">
		<title>
			Search icon
		</title>
		<g>
			<path d="M 21 3 C 11.601563 3 4 10.601563 4 20 C 4 29.398438 11.601563 37 21 37 C 24.355469 37 27.460938 36.015625 30.09375 34.34375 L 42.375 46.625 L 46.625 42.375 L 34.5 30.28125 C 36.679688 27.421875 38 23.878906 38 20 C 38 10.601563 30.398438 3 21 3 Z M 21 7 C 28.199219 7 34 12.800781 34 20 C 34 27.199219 28.199219 33 21 33 C 13.800781 33 8 27.199219 8 20 C 8 12.800781 13.800781 7 21 7 Z" />
		</g>
	</symbol>
	<symbol id="library" viewBox="0 0 50.000000 51.000000">
		<g>
			<g transform="translate(0.000000,51.000000) scale(0.100000,-0.100000)" stroke="none">
				<path d="M278 497 c-14 -11 -4 -39 83 -245 53 -129 100 -236 103 -239 2 -3 11 -1 20 4 12 7 -2 48 -85 248 -55 131 -101 240 -103 242 -1 1 -9 -3 -18 -10z" />
				<path d="M0 255 c0 -238 1 -245 20 -245 19 0 20 7 20 245 0 238 -1 245 -20 245 -19 0 -20 -7 -20 -245z" />
				<path d="M150 255 c0 -238 1 -245 20 -245 19 0 20 7 20 245 0 238 -1 245 -20 245 -19 0 -20 -7 -20 -245z" />
			</g>
		</g>
	</symbol>
	<symbol id="results" viewBox="0 0 50.000000 50.000000">
		<g>
			<g transform="translate(0.000000,50.000000) scale(0.100000,-0.100000)" stroke="none">
				<path d="M427 458 c-14 -24 -38 -58 -54 -76 l-28 -34 -38 18 c-20 10 -37 2 -37 26 0 18 -29 6 -63 -25 -41 -39 -127 -87 -156 -87 -23 0 -37 -18 -24 -31 5 -5 25 -1 48 11 22 11 48 20 58 20 11 0 28 11 38 24 11 14 35 34 54 46 l34 21 40 -20 c21 -11 41 -26 43 -33 4 -10 8 -10 21 1 10 7 17 18 17 23 0 13 69 109 89 124 14 11 8 34 -9 34 -4 0 -19 -19 -33 -42z" />
				<path d="M420 180 l0 -180 40 0 40 0 0 180 0 180 -40 0 -40 0 0 -180z m60 0 c0 -153 -1 -160 -20 -160 -19 0 -20 7 -20 160 0 153 1 160 20 160 19 0 20 -7 20 -160z" />
				<path d="M210 135 l0 -135 40 0 40 0 0 135 0 135 -40 0 -40 0 0 -135z m60 0 c0 -108 -1 -115 -20 -115 -19 0 -20 7 -20 115 0 108 1 115 20 115 19 0 20 -7 20 -115z" />
				<path d="M310 110 l0 -110 45 0 45 0 0 110 0 110 -45 0 -45 0 0 -110z m60 0 c0 -83 -1 -90 -20 -90 -19 0 -20 7 -20 90 0 83 1 90 20 90 19 0 20 -7 20 -90z" />
				<path d="M107 183 c-4 -3 -7 -46 -7 -95 l0 -88 45 0 45 0 0 95 0 95 -38 0 c-21 0 -42 -3 -45 -7z m63 -88 c0 -68 -2 -75 -20 -75 -18 0 -20 7 -20 75 0 68 2 75 20 75 18 0 20 -7 20 -75z" />
				<path d="M0 70 l0 -70 40 0 40 0 0 70 0 70 -40 0 -40 0 0 -70z m60 0 c0 -43 -3 -50 -20 -50 -17 0 -20 7 -20 50 0 43 3 50 20 50 17 0 20 -7 20 -50z" />
			</g>
		</g>
		<symbol id="profile" viewBox="0 0 50.000000 50.000000">
			<g>
				<g transform="translate(0.000000,50.000000) scale(0.100000,-0.100000)" stroke="none">
					<path d="M201 488 c-42 -23 -64 -63 -69 -127 -4 -58 18 -131 39 -131 5 0 9 -15 9 -32 0 -30 -5 -36 -65 -67 -66 -34 -95 -68 -95 -111 0 -20 5 -20 230 -20 225 0 230 0 230 20 0 43 -29 77 -95 111 -56 30 -65 38 -65 62 0 15 8 37 19 48 48 52 39 183 -17 232 -26 24 -90 32 -121 15z m84 -22 c44 -19 55 -42 55 -119 0 -50 -5 -70 -21 -90 -15 -20 -19 -38 -17 -69 3 -40 5 -43 60 -70 51 -25 98 -68 98 -89 0 -5 -94 -9 -210 -9 -116 0 -210 4 -210 9 0 21 47 64 101 92 57 29 59 30 59 70 0 26 -7 50 -20 66 -15 20 -20 41 -20 90 0 76 11 100 53 118 40 18 32 17 72 1z" />
				</g>
			</g>
		</symbol>
	</symbol>
</svg>
